HIERARCHY
ROOT Hips
{
	OFFSET 0.00000 0.00000 0.00000
	CHANNELS 6 Xposition Yposition Zposition Zrotation Yrotation Xrotation 
	JOINT LHipJoint
	{
		OFFSET 0 0 0
		CHANNELS 3 Zrotation Yrotation Xrotation
		JOINT LeftHip
		{
			OFFSET 1.34019 -1.87553 0.90315
			CHANNELS 3 Zrotation Yrotation Xrotation
			JOINT LeftKnee
			{
				OFFSET 2.55316 -7.01474 0.00000
				CHANNELS 3 Zrotation Yrotation Xrotation
				JOINT LeftAnkle
				{
					OFFSET 2.64657 -7.27139 0.00000
					CHANNELS 3 Zrotation Yrotation Xrotation
					JOINT LeftToe
					{
						OFFSET 0.24207 -0.66507 2.14489
						CHANNELS 3 Zrotation Yrotation Xrotation
						End Site
						{
							OFFSET 0.00000 -0.00000 1.12451
						}
					}
				}
			}
		}
	}
	JOINT RHipJoint
	{
		OFFSET 0 0 0
		CHANNELS 3 Zrotation Yrotation Xrotation
		JOINT RightHip
		{
			OFFSET -1.28320 -1.87553 0.90315
			CHANNELS 3 Zrotation Yrotation Xrotation
			JOINT RightKnee
			{
				OFFSET -2.60484 -7.15674 0.00000
				CHANNELS 3 Zrotation Yrotation Xrotation
				JOINT RightAnkle
				{
					OFFSET -2.60296 -7.15159 0.00000
					CHANNELS 3 Zrotation Yrotation Xrotation
					JOINT RightToe
					{
						OFFSET -0.31082 -0.85398 2.28998
						CHANNELS 3 Zrotation Yrotation Xrotation
						End Site
						{
							OFFSET -0.00000 -0.00000 1.21611
						}
					}
				}
			}
		}
	}
	JOINT lowerback
	{
		OFFSET 0 0 0
		CHANNELS 3 Zrotation Yrotation Xrotation
		JOINT Chest
		{
			OFFSET -0.00160 2.05581 -0.15156
			CHANNELS 3 Zrotation Yrotation Xrotation
			JOINT Chest2
			{
				OFFSET 0.04594 2.06326 -0.01617
				CHANNELS 3 Zrotation Yrotation Xrotation
				JOINT lowerneck
				{
					OFFSET 0 0 0
					CHANNELS 3 Zrotation Yrotation Xrotation
					JOINT Neck
					{
						OFFSET 0.03753 1.73883 0.26751
						CHANNELS 3 Zrotation Yrotation Xrotation
						JOINT Head
						{
							OFFSET -0.09795 1.76129 -0.31794
							CHANNELS 3 Zrotation Yrotation Xrotation
							End Site
							{
								OFFSET -0.03611 1.79987 -0.13846
							}
						}
					}
				}
				JOINT LeftCollar
				{
					OFFSET 0 0 0
					CHANNELS 3 Zrotation Yrotation Xrotation
					JOINT LeftShoulder
					{
						OFFSET 3.30667 1.29205 -0.22445
CHANNELS 3 Zrotation Xrotation Yrotation
						JOINT LeftElbow
						{
OFFSET 0 -4.927850 -0.000000
CHANNELS 3 Zrotation Xrotation Yrotation
							JOINT LeftWrist
							{
OFFSET 0 -3.440520 0.000000
CHANNELS 3 Zrotation Xrotation Yrotation
								JOINT lhand
								{
									OFFSET 0 0 0
CHANNELS 3 Zrotation Xrotation Yrotation
									JOINT LFingers
									{
OFFSET 0 -0.654330 0.000000
CHANNELS 3 Zrotation Xrotation Yrotation
										End Site
										{
OFFSET 0 -0.527530 0.000000
										}
									}
								}
								JOINT LThumb
								{
OFFSET 0 0.000000 0.000000
CHANNELS 3 Zrotation Xrotation Yrotation
									End Site
									{
OFFSET 0 -0.535590 0.535590
									}
								}
							}
						}
					}
				}
				JOINT RightCollar
				{
					OFFSET 0 0 0
					CHANNELS 3 Zrotation Yrotation Xrotation
					JOINT RightShoulder
					{
						OFFSET -3.20032 1.49783 -0.27688
CHANNELS 3 Zrotation Xrotation Yrotation
						JOINT RightElbow
						{
OFFSET 0 -5.091810 -0.000000
CHANNELS 3 Zrotation Xrotation Yrotation
							JOINT RightWrist
							{
OFFSET 0 -3.498650 -0.000000
CHANNELS 3 Zrotation Xrotation Yrotation
								JOINT rhand
								{
									OFFSET 0 0 0
CHANNELS 3 Zrotation Xrotation Yrotation
									JOINT RFingers
									{
OFFSET 0 -0.666410 0.000000
CHANNELS 3 Zrotation Xrotation Yrotation
										End Site
										{
OFFSET 0 -0.537280 0.000000
										}
									}
								}
								JOINT RThumb
								{
OFFSET 0 0.000000 0.000000
CHANNELS 3 Zrotation Xrotation Yrotation
									End Site
									{
OFFSET 0 -0.545480 0.545480
									}
								}
							}
						}
					}
				}
			}
		}
	}
}
MOTION
Frames: 8
Frame Time: 0.008333333333333333
1.398375 17.619310 38.335053 -178.632134 -2.973612 181.146785 0.000000 0.000000 0.000000 -19.463622 -3.835955 -17.269399 4.341341 12.601282 37.893671 0.876433 3.352795 -19.202800 0.139970 -2.411202 -6.643543 0.000000 0.000000 0.000000 21.619028 2.209847 -14.460666 -4.403555 -12.678809 38.177915 -1.022496 -11.929479 -26.830226 -2.565200 -9.955388 28.832448 -3.060048 1.716148 5.733296 2.735652 2.144733 -0.917888 4.362820 1.161181 -4.392776 3.914645 -1.264339 -19.635182 -6.362998 -2.117543 26.017179 -3.431848 -1.730114 11.639180 0.000000 0.000000 0.000000 3.847920 3.237364 -27.279084 16.415360 -26.080389 3.826841 14.010739 -10.166713 -0.536994 0.000000 0.000000 0.000000 -7.125000 0.000000 0.000000 -9.916224 30.449989 -3.570846 0.000000 0.000000 0.000000 -4.173282 6.710457 15.113534 -18.958740 -29.367327 -5.010637 -16.321658 -2.146691 2.003364 0.000000 0.000000 0.000000 7.125000 0.000000 0.000000 8.241455 31.996549 2.646485
1.530172 17.597987 38.241515 -178.767910 -3.131042 180.551013 0.000000 0.000000 0.000000 -19.032642 -3.544932 -16.386988 4.369682 12.636740 38.023405 0.940981 2.546876 -19.410938 0.149666 -2.493256 -6.870961 0.000000 0.000000 0.000000 22.187335 2.214199 -12.865552 -4.123971 -12.323553 36.886371 -0.517388 -13.564392 -24.413374 -3.241359 -11.075960 32.536453 -3.804548 2.205787 5.313303 2.745675 2.764372 -0.832586 4.746329 1.484898 -4.166896 3.977213 -1.557622 -19.428899 -6.788073 -2.489101 26.498706 -3.677723 -1.968728 11.750073 0.000000 0.000000 0.000000 4.219307 1.641734 -27.965327 18.164419 -28.367155 4.627069 15.050914 -11.943090 -0.171995 0.000000 0.000000 0.000000 -7.125000 0.000000 0.000000 -9.065327 30.092878 -3.335471 0.000000 0.000000 0.000000 -4.513767 6.366760 14.834934 -19.157763 -29.614267 -5.108576 -16.550141 -1.755464 1.853327 0.000000 0.000000 0.000000 7.125000 0.000000 0.000000 8.044292 31.847187 2.611179
1.778550 17.602088 38.213719 -177.826267 -1.965953 180.280150 0.000000 0.000000 0.000000 -17.381759 -5.081312 -15.728515 4.570371 12.882971 38.931863 0.879544 5.384262 -20.459268 0.134364 -2.362248 -6.507848 0.000000 0.000000 0.000000 24.491247 3.587423 -10.449529 -3.566357 -11.559899 34.192167 -0.327923 -14.691059 -24.053747 -3.306471 -11.175454 32.873726 -2.126283 1.423226 5.355550 2.881375 1.815910 -0.969159 4.025221 0.967190 -4.172436 5.376212 0.421636 -19.799927 -8.048094 0.224293 26.702903 -4.014050 -0.798547 12.095129 0.000000 0.000000 0.000000 3.826616 3.153612 -24.382327 19.253328 -29.732231 5.155870 15.701160 -13.102299 0.274135 0.000000 0.000000 0.000000 -7.125000 0.000000 0.000000 -8.517059 29.642323 -3.222193 0.000000 0.000000 0.000000 -5.059413 5.060363 15.823523 -17.724363 -27.802818 -4.419987 -16.713209 0.350174 2.247460 0.000000 0.000000 0.000000 7.125000 0.000000 0.000000 7.953250 32.258469 2.501592
2.029065 17.588618 38.250825 -176.071866 -0.842422 180.371357 0.000000 0.000000 0.000000 -15.206793 -6.543861 -17.611998 5.518217 13.944549 43.016058 0.914918 9.812862 -24.135299 0.164404 -2.611774 -7.199874 0.000000 0.000000 0.000000 27.369363 3.572065 -9.043201 -3.003549 -10.700804 31.277239 -0.227167 -14.555456 -22.966820 -3.336650 -11.220997 33.028928 -0.836929 1.859660 5.808587 3.585262 2.467832 -1.017176 3.960351 1.249499 -4.512255 5.827192 0.422363 -20.057799 -8.363755 0.224277 26.038883 -4.179876 -0.762073 11.886533 0.000000 0.000000 0.000000 2.967823 4.273957 -24.980698 18.482785 -28.770893 4.779402 13.992769 -9.941301 0.598218 0.000000 0.000000 0.000000 -7.125000 0.000000 0.000000 -9.815175 29.297048 -3.807537 0.000000 0.000000 0.000000 -5.903849 4.959911 15.070067 -17.140808 -27.043056 -4.151154 -16.860884 0.680804 2.245678 0.000000 0.000000 0.000000 7.125000 0.000000 0.000000 7.834865 32.260448 2.463399
2.076600 17.563893 38.217388 -176.295606 -0.101743 179.875311 0.000000 0.000000 0.000000 -17.407051 -4.334650 -18.978942 5.820614 14.252112 44.257370 1.392285 5.721387 -25.008236 0.329480 -3.685670 -10.194291 0.000000 0.000000 0.000000 27.247566 3.534837 -8.745716 -3.121255 -10.888798 31.905796 -0.340446 -13.906596 -23.232348 -3.309262 -11.179622 32.888126 -1.113137 2.386284 5.611499 3.873820 3.129933 -0.483743 4.366174 1.569183 -3.929836 5.297749 -0.202821 -20.284826 -8.013981 -0.610728 26.316559 -4.100348 -1.149264 11.968664 0.000000 0.000000 0.000000 1.091587 4.318370 -24.746392 15.911066 -25.399678 3.607798 13.576602 -6.323401 0.753706 0.000000 0.000000 0.000000 -7.125000 0.000000 0.000000 -10.122080 29.136043 -3.969404 0.000000 0.000000 0.000000 -7.174326 5.100351 13.084712 -16.428578 -26.098310 -3.832578 -16.675567 1.058259 2.339870 0.000000 0.000000 0.000000 7.125000 0.000000 0.000000 7.992755 32.352974 2.495870
2.004242 17.533932 38.078663 -176.174192 0.335075 179.534033 0.000000 0.000000 0.000000 -18.828583 -5.207102 -16.290200 5.165111 13.567382 41.531293 0.611499 11.186169 -22.759250 0.003950 -0.406252 -1.116304 0.000000 0.000000 0.000000 27.090802 3.470116 -7.976765 -3.182303 -10.984482 32.227642 -0.509443 -13.187584 -23.932548 -3.372578 -11.275090 33.213353 -1.477509 2.466969 4.865919 4.288277 3.518000 -0.604877 4.990316 1.901254 -3.717389 5.875724 -0.385159 -18.633330 -8.440488 -0.923891 25.628620 -4.335936 -1.283199 11.338696 0.000000 0.000000 0.000000 0.192196 6.012714 -26.168457 14.206977 -23.029708 2.908697 12.674479 -4.542972 0.661594 0.000000 0.000000 0.000000 -7.125000 0.000000 0.000000 -10.828644 29.221321 -4.232948 0.000000 0.000000 0.000000 -7.688745 6.532151 10.655571 -16.361714 -26.008644 -3.803194 -16.810473 1.955196 2.770370 0.000000 0.000000 0.000000 7.125000 0.000000 0.000000 7.928835 32.801836 2.388991
1.902489 17.538800 37.964574 -177.125082 0.324023 179.723212 0.000000 0.000000 0.000000 -20.272900 -4.641581 -15.432447 4.840292 13.201607 40.128047 0.603130 11.025908 -22.524078 0.008348 -0.588765 -1.617868 0.000000 0.000000 0.000000 25.809548 4.099998 -7.921631 -3.329000 -11.209500 32.989800 -0.556247 -13.641661 -24.826987 -3.400889 -11.317351 33.357828 -3.661032 3.698970 4.164933 4.321572 5.029383 -0.786555 6.158680 2.702092 -3.860637 4.521249 -2.419550 -18.346512 -7.550603 -3.713316 26.286718 -4.186114 -2.583906 11.333850 0.000000 0.000000 0.000000 0.627674 6.218101 -29.377097 12.867683 -21.093018 2.405464 11.862456 -2.788286 -0.077116 0.000000 0.000000 0.000000 -7.125000 0.000000 0.000000 -11.540081 29.952931 -4.315770 0.000000 0.000000 0.000000 -6.228639 8.114410 4.320642 -16.443547 -26.118371 -3.839130 -16.948190 2.961399 3.248536 0.000000 0.000000 0.000000 7.125000 0.000000 0.000000 7.868558 33.300923 2.274718
1.772206 17.535563 37.873358 -177.291703 1.293807 180.001115 0.000000 0.000000 0.000000 -21.048798 -4.261088 -15.101570 4.732741 13.076304 39.654770 0.577611 11.743970 -23.014098 0.004463 -0.432654 -1.188792 0.000000 0.000000 0.000000 25.098198 4.509513 -7.976732 -3.395078 -11.308749 33.328229 -0.621930 -13.088391 -24.788757 -3.299854 -11.165357 32.839525 -2.577639 2.624753 4.204079 4.072601 3.633597 -0.926786 5.400873 1.972942 -3.746210 6.248212 -0.019477 -17.811616 -9.131787 -0.335509 25.298749 -4.544987 -1.073552 11.099821 0.000000 0.000000 0.000000 0.573861 6.655585 -24.252218 12.929614 -21.183941 2.427782 11.948706 -2.395553 -0.061280 0.000000 0.000000 0.000000 -7.125000 0.000000 0.000000 -11.471225 29.938414 -4.293148 0.000000 0.000000 0.000000 -6.362919 7.882340 9.688220 -15.664746 -25.064004 -3.502773 -16.447602 2.722762 2.194061 0.000000 0.000000 0.000000 7.125000 0.000000 0.000000 8.160358 32.196350 2.580248
